<svg xmlns="http://www.w3.org/2000/svg" xmlns:svg="http://www.w3.org/2000/svg" id="svg283" width="522.817" height="68.059" preserveAspectRatio="none" version="1.1" viewBox="0 0 522.817 68.059"><metadata id="metadata287"/><defs id="defs20"><style id="style2">.cls-1{fill:none}.cls-5{fill:#306a99}.cls-9{fill:#009abf}</style><linearGradient id="linear-gradient" x1="720" x2="720" y2="556.09" gradientUnits="userSpaceOnUse"><stop id="stop4" offset="0" stop-color="#9ecee0"/><stop id="stop6" offset=".01" stop-color="#9bcddf"/><stop id="stop8" offset=".36" stop-color="#59b7d2"/><stop id="stop10" offset=".65" stop-color="#29a7c8"/><stop id="stop12" offset=".87" stop-color="#0b9ec1"/><stop id="stop14" offset="1" stop-color="#009abf"/></linearGradient><clipPath id="clip-path"><rect id="rect17" width="1440.68" height="567.08" x="0" y="40.53" class="cls-1" style="fill:none"/></clipPath></defs><title id="title22">Pycon Logo 2019 FINAL</title><rect id="rect28" width="1440.08" height="54.21" x="0" y="17" class="cls-5" style="fill:#306a99;stroke-width:.66483277"/><path id="path36" d="m 521,16.13 c -10.29,0 -15,-2.92 -21,-6.6099997 C 493.13,5.28 484.59,0 468.76,0 452.93,0 444.39,5.28 437.52,9.5200003 431.52,13.21 426.82,16.13 416.52,16.13 c -10.3,0 -15,-2.92 -21,-6.6099997 C 388.66,5.28 380.12,0 364.3,0 348.48,0 339.95,5.28 333.09,9.5200003 327.09,13.21 322.42,16.13 312.15,16.13 c -10.27,0 -15,-2.92 -20.94,-6.6099997 C 284.35,5.28 275.81,0 260.01,0 244.21,0 235.66,5.28 228.8,9.5200003 222.8,13.21 218.12,16.13 207.85,16.13 c -10.27,0 -15,-2.92 -21,-6.6099997 C 179.99,5.28 171.46,0 155.65,0 139.84,0 131.3,5.28 124.44,9.5200003 118.44,13.21 113.76,16.13 103.49,16.13 93.22,16.13 88.49,13.21 82.55,9.5200003 75.7,5.28 67.16,0 51.36,0 35.56,0 27.03,5.28 20.17,9.5200003 14.47,13.13 9.8199995,15.95 -4.7050855e-7,16.06 v 18.2 C 15.4,34.12 23.81,28.94 30.57,24.75 c 6,-3.69 10.67,-6.6 20.92,-6.6 10.25,0 15,2.91 20.94,6.6 6.85,4.25 15.39,9.52 31.19,9.52 15.8,0 24.35,-5.27 31.21,-9.51 6,-3.69 10.68,-6.61 20.95,-6.61 10.27,0 15,2.91 20.95,6.61 6.86,4.24 15.39,9.51 31.2,9.51 15.81,0 24.35,-5.27 31.21,-9.51 6,-3.69 10.68,-6.61 20.95,-6.61 10.27,0 15,2.91 20.94,6.6 6.86,4.25 15.39,9.52 31.2,9.52 15.81,0 24.34,-5.27 31.2,-9.51 6,-3.7 10.68,-6.61 20.95,-6.61 10.27,0 15,2.92 21,6.61 6.86,4.24 15.4,9.51 31.22,9.51 15.82,0 24.37,-5.27 31.24,-9.51 6,-3.69 10.7,-6.61 21,-6.61 10.3,0 15,2.92 21,6.61 6.87,4.24 15.42,9.51 31.24,9.51 h 919 V 16.13 Z" class="cls-9" style="fill:#009abf"/><path id="path38" d="m 519.44109,44.27 c -10.25921,0 -14.95512,-2.91 -20.93716,-6.6 -6.84945,-4.24 -15.36389,-9.52 -31.14653,-9.52 -15.78263,0 -24.29708,5.28 -31.14652,9.52 -5.98205,3.69 -10.66799,6.6 -20.93717,6.6 -10.26918,0 -14.95512,-2.91 -20.93716,-6.6 -6.83948,-4.24 -15.35393,-9.52 -31.12659,-9.52 -15.77266,0 -24.27714,5.28 -31.11661,9.52 -5.98205,3.69 -10.63808,6.6 -20.87735,6.6 -10.23927,0 -14.95512,-2.91 -20.87734,-6.6 -6.83948,-4.24 -15.35392,-9.52 -31.10665,-9.52 -15.75272,0 -24.27714,5.28 -31.11661,9.52 -5.98205,3.69 -10.64805,6.6 -20.88732,6.6 -10.23927,0 -14.95512,-2.91 -20.93716,-6.6 -6.83948,-4.24 -15.34395,-9.52 -31.10665,-9.52 -15.76269,0 -24.27714,5.28 -31.11661,9.52 -5.98205,3.69 -10.64805,6.6 -20.88732,6.6 -10.239268,0 -14.955115,-2.91 -20.877342,-6.6 -6.699893,-4.24 -15.21434,-9.54 -30.967064,-9.54 -15.752724,0 -24.257201,5.28 -31.096675,9.52 C 14.426704,41.28 9.7906166,44.13 -4.7050855e-7,44.26 v 18.2 C 15.353921,62.32 23.738757,57.14 30.47853,52.95 c 5.982047,-3.69 10.638074,-6.6 20.857404,-6.6 10.219331,0 14.955118,2.91 20.877345,6.6 6.829504,4.24 15.343951,9.52 31.096671,9.52 15.75273,0 24.27714,-5.28 31.11662,-9.52 5.98205,-3.68 10.64804,-6.6 20.88731,-6.6 10.23927,0 14.95512,2.91 20.88732,6.6 6.83947,4.24 15.34395,9.52 31.10664,9.52 15.7627,0 24.27714,-5.28 31.11662,-9.52 5.98204,-3.68 10.64804,-6.6 20.88731,-6.6 10.23927,0 14.95512,2.91 20.87735,6.6 6.83947,4.24 15.34395,9.52 31.10664,9.52 15.7627,0 24.26717,-5.28 31.10665,-9.52 5.98204,-3.69 10.64804,-6.6 20.88731,-6.6 10.23927,0 14.95512,2.92 20.93717,6.61 6.83947,4.24 15.35392,9.51 31.12658,9.51 15.77267,0 24.29708,-5.27 31.14653,-9.51 5.98204,-3.69 10.66798,-6.61 20.93716,-6.61 10.26918,0 14.95512,2.92 20.93717,6.61 6.84944,4.24 15.37386,9.51 31.14652,9.51 h 916.25025 v -18.2 z" class="cls-5" style="fill:#306a99;stroke-width:.99850279"/></svg>