<svg xmlns="http://www.w3.org/2000/svg" xmlns:svg="http://www.w3.org/2000/svg" id="svg93" width="462.58" height="15.48" preserveAspectRatio="none" version="1.1" viewBox="0 0 122.391 4.096"><metadata id="metadata90"/><g id="layer1" transform="translate(-420.34619,-112.01165)"><path style="fill:none;stroke:#ffd43c;stroke-width:1.33350003px;stroke-miterlimit:10" id="path278" d="m 420.34619,112.6784 c 3.39989,0 3.39989,2.76225 6.79979,2.76225 3.39989,0 3.39989,-2.76225 6.79714,-2.76225 3.39725,0 3.3999,2.76225 6.7998,2.76225 3.39989,0 3.39989,-2.76225 6.79979,-2.76225 3.39989,0 3.39989,2.76225 6.79979,2.76225 3.39989,0 3.39989,-2.76225 6.79714,-2.76225 3.39725,0 3.3999,2.76225 6.7998,2.76225 3.39989,0 3.39989,-2.76225 6.79979,-2.76225 3.39989,0 3.39989,2.76225 6.79979,2.76225 3.3999,0 3.3999,-2.76225 6.79715,-2.76225 3.39725,0 3.39989,2.76225 6.79979,2.76225 3.39989,0 3.39989,-2.76225 6.79979,-2.76225 3.39989,0 3.39989,2.76225 6.79979,2.76225 3.3999,0 3.3999,-2.76225 6.79979,-2.76225 3.3999,0 3.3999,2.76225 6.7998,2.76225 3.39989,0 3.39989,-2.76225 6.79979,-2.76225 3.39989,0 3.39989,2.76225 6.80244,2.76225 3.40254,0 3.39989,-2.76225 6.79979,-2.76225" class="cls-10"/></g></svg>