<svg xmlns="http://www.w3.org/2000/svg" xmlns:xlink="http://www.w3.org/1999/xlink" width="1000" height="412" viewBox="0 0 1000 412"><style type="text/css">path{stroke-width:1px;stroke:#000}text{fill:#000;stroke:none;text-anchor:middle;dominant-baseline:middle;font-family:Helvetica;font-size:18px;font-weight:700}text.break{font-size:14px;font-style:italic;font-weight:400}a:hover[target] text{text-decoration:underline}.reticle text{font-size:13px}.open-spaces rect{fill:#90e4d3}.open-space rect{fill:#fff;stroke-width:0}.talks rect{fill:#eedda0}.expo rect{fill:#cede9f}.plenary rect{fill:#fbe452}.event rect{fill:#e0e0e0}</style><g class="reticle"><path d="M -40 0 L -30 0 z M 30 0 L 40 0 z" transform="translate(300, 60.5)"/><text x="0" y="0" transform="translate(300, 60.5)">9:00 am</text></g><g class="reticle"><path d="M -40 0 L -30 0 z M 30 0 L 40 0 z" transform="translate(300, 90.5)"/><text x="0" y="0" transform="translate(300, 90.5)">10:00 am</text></g><g class="reticle"><path d="M -40 0 L -30 0 z M 30 0 L 40 0 z" transform="translate(300, 120.5)"/><text x="0" y="0" transform="translate(300, 120.5)">11:00 am</text></g><g class="reticle"><path d="M -40 0 L -30 0 z M 30 0 L 40 0 z" transform="translate(300, 150.5)"/><text x="0" y="0" transform="translate(300, 150.5)">12:00 pm</text></g><g class="reticle"><path d="M -40 0 L -30 0 z M 30 0 L 40 0 z" transform="translate(300, 180.5)"/><text x="0" y="0" transform="translate(300, 180.5)">1:00 pm</text></g><g class="reticle"><path d="M -40 0 L -30 0 z M 30 0 L 40 0 z" transform="translate(300, 210.5)"/><text x="0" y="0" transform="translate(300, 210.5)">2:00 pm</text></g><g class="reticle"><path d="M -40 0 L -30 0 z M 30 0 L 40 0 z" transform="translate(300, 240.5)"/><text x="0" y="0" transform="translate(300, 240.5)">3:00 pm</text></g><g class="reticle"><path d="M -40 0 L -30 0 z M 30 0 L 40 0 z" transform="translate(300, 270.5)"/><text x="0" y="0" transform="translate(300, 270.5)">4:00 pm</text></g><g class="reticle"><path d="M -40 0 L -30 0 z M 30 0 L 40 0 z" transform="translate(300, 300.5)"/><text x="0" y="0" transform="translate(300, 300.5)">5:00 pm</text></g><g class="reticle"><path d="M -40 0 L -30 0 z M 30 0 L 40 0 z" transform="translate(300, 330.5)"/><text x="0" y="0" transform="translate(300, 330.5)">6:00 pm</text></g><g class="reticle"><path d="M -40 0 L -30 0 z M 30 0 L 40 0 z" transform="translate(300, 360.5)"/><text x="0" y="0" transform="translate(300, 360.5)">7:00 pm</text></g><g class="reticle"><path d="M -40 0 L -30 0 z M 30 0 L 40 0 z" transform="translate(300, 390.5)"/><text x="0" y="0" transform="translate(300, 390.5)">8:00 pm</text></g><g class="reticle"><path d="M -40 0 L -30 0 z M 30 0 L 40 0 z" transform="translate(520, 60.5)"/><text x="0" y="0" transform="translate(520, 60.5)">9:00 am</text></g><g class="reticle"><path d="M -40 0 L -30 0 z M 30 0 L 40 0 z" transform="translate(520, 90.5)"/><text x="0" y="0" transform="translate(520, 90.5)">10:00 am</text></g><g class="reticle"><path d="M -40 0 L -30 0 z M 30 0 L 40 0 z" transform="translate(520, 120.5)"/><text x="0" y="0" transform="translate(520, 120.5)">11:00 am</text></g><g class="reticle"><path d="M -40 0 L -30 0 z M 30 0 L 40 0 z" transform="translate(520, 150.5)"/><text x="0" y="0" transform="translate(520, 150.5)">12:00 pm</text></g><g class="reticle"><path d="M -40 0 L -30 0 z M 30 0 L 40 0 z" transform="translate(520, 180.5)"/><text x="0" y="0" transform="translate(520, 180.5)">1:00 pm</text></g><g class="reticle"><path d="M -40 0 L -30 0 z M 30 0 L 40 0 z" transform="translate(520, 210.5)"/><text x="0" y="0" transform="translate(520, 210.5)">2:00 pm</text></g><g class="reticle"><path d="M -40 0 L -30 0 z M 30 0 L 40 0 z" transform="translate(520, 240.5)"/><text x="0" y="0" transform="translate(520, 240.5)">3:00 pm</text></g><g class="reticle"><path d="M -40 0 L -30 0 z M 30 0 L 40 0 z" transform="translate(520, 270.5)"/><text x="0" y="0" transform="translate(520, 270.5)">4:00 pm</text></g><g class="reticle"><path d="M -40 0 L -30 0 z M 30 0 L 40 0 z" transform="translate(520, 300.5)"/><text x="0" y="0" transform="translate(520, 300.5)">5:00 pm</text></g><g class="reticle"><path d="M -40 0 L -30 0 z M 30 0 L 40 0 z" transform="translate(520, 330.5)"/><text x="0" y="0" transform="translate(520, 330.5)">6:00 pm</text></g><g class="reticle"><path d="M -40 0 L -30 0 z M 30 0 L 40 0 z" transform="translate(520, 360.5)"/><text x="0" y="0" transform="translate(520, 360.5)">7:00 pm</text></g><g class="reticle"><path d="M -40 0 L -30 0 z M 30 0 L 40 0 z" transform="translate(520, 390.5)"/><text x="0" y="0" transform="translate(520, 390.5)">8:00 pm</text></g><a class="plenary"><rect width="248" height="30" x="1" y="60"/><text x="124" y="75">Keynote</text></a><a class="event" target="_top" xlink:href="/2016/events/dinners/"><rect width="248" height="45" x="1" y="360"/><text x="133" y="383">Dinner ($)</text></a><a class="open-spaces" target="_top" transform="translate(570, 0)" xlink:href="/2016/events/open-spaces/"><rect width="120" height="330" y="60"/><text x="60" y="225">Open Spaces</text><g class="open-space"><rect width="26" height="26" x="62" y="92" transform="rotate(-0.275018764975 75.0 90)"/><circle cx="75" cy="96" r="1.5"/><rect width="26" height="26" x="62" y="122" transform="rotate(-0.247447617743 75.0 120)"/><circle cx="75" cy="126" r="1.5"/><rect width="26" height="26" x="92" y="122" transform="rotate(0.350086873887 105.0 120)"/><circle cx="105" cy="126" r="1.5"/><rect width="26" height="26" x="32" y="152" transform="rotate(-2.26616159629 45.0 150)"/><circle cx="45" cy="156" r="1.5"/><rect width="26" height="26" x="62" y="152" transform="rotate(3.33076297447 75.0 150)"/><circle cx="75" cy="156" r="1.5"/><rect width="26" height="26" x="2" y="182" transform="rotate(2.37717593145 15.0 180)"/><circle cx="15" cy="186" r="1.5"/><rect width="26" height="26" x="32" y="182" transform="rotate(0.939620163729 45.0 180)"/><circle cx="45" cy="186" r="1.5"/><rect width="26" height="26" x="62" y="182" transform="rotate(-3.98580110238 75.0 180)"/><circle cx="75" cy="186" r="1.5"/><rect width="26" height="26" x="2" y="242" transform="rotate(-2.2761506462 15.0 240)"/><circle cx="15" cy="246" r="1.5"/><rect width="26" height="26" x="92" y="242" transform="rotate(3.6918239116 105.0 240)"/><circle cx="105" cy="246" r="1.5"/><rect width="26" height="26" x="62" y="272" transform="rotate(3.5278080087 75.0 270)"/><circle cx="75" cy="276" r="1.5"/><rect width="26" height="26" x="62" y="302" transform="rotate(-1.11048052222 75.0 300)"/><circle cx="75" cy="306" r="1.5"/><rect width="26" height="26" x="92" y="302" transform="rotate(-2.83438472367 105.0 300)"/><circle cx="105" cy="306" r="1.5"/><rect width="26" height="26" x="2" y="332" transform="rotate(-1.58912719384 15.0 330)"/><circle cx="15" cy="336" r="1.5"/><rect width="26" height="26" x="62" y="332" transform="rotate(1.42347399638 75.0 330)"/><circle cx="75" cy="336" r="1.5"/><rect width="26" height="26" x="92" y="332" transform="rotate(-1.52033654717 105.0 330)"/><circle cx="105" cy="336" r="1.5"/><rect width="26" height="26" x="62" y="362" transform="rotate(-0.150252910105 75.0 360)"/><circle cx="75" cy="366" r="1.5"/></g></a><a class="talks" target="_top" xlink:href="/2016/schedule/talks/"><rect width="48" height="15" x="1" y="186"/><rect width="48" height="17" x="1" y="203"/><rect width="48" height="15" x="1" y="222"/><rect width="48" height="15" x="51" y="186"/><rect width="48" height="17" x="51" y="203"/><rect width="48" height="15" x="51" y="222"/><rect width="48" height="15" x="101" y="186"/><rect width="48" height="17" x="101" y="203"/><rect width="48" height="15" x="101" y="222"/><rect width="48" height="15" x="151" y="186"/><rect width="48" height="17" x="151" y="203"/><rect width="48" height="15" x="151" y="222"/><rect width="48" height="15" x="201" y="186"/><rect width="48" height="17" x="201" y="203"/><rect width="48" height="15" x="201" y="222"/><text x="125" y="196">Talks</text></a><a class="expo" target="_top" transform="translate(350, 0)" xlink:href="/2016/sponsors/exhibitfloor/"><rect width="120" height="90" x="1" y="90"/><text x="60" y="115">Posters and</text><text x="60" y="140">Job Fair</text><text x="60" y="170" class="break">— Lunch —</text></a><a class="plenary"><rect width="248" height="40" x="1" y="245"/><text x="124" y="265">Keynote and Closing</text></a><a class="talks"><rect width="248" height="45" x="1" y="300"/><text x="124" y="322">Intro to sprints</text></a></svg>