<svg xmlns="http://www.w3.org/2000/svg" xmlns:xlink="http://www.w3.org/1999/xlink" width="1000" height="375" viewBox="0 0 1000 375"><style type="text/css">path{stroke-width:1px;stroke:#000}text{fill:#000;stroke:none;text-anchor:middle;dominant-baseline:middle;font-family:Helvetica;font-size:18px;font-weight:700}a:hover[target] text{text-decoration:underline}.reticle text{font-size:13px}.tutorials rect{fill:#eedda0}.workshops rect{fill:#cede9f}.summit rect{fill:#d1ee3d}.event rect{fill:#e0e0e0}</style><g class="reticle"><path d="M -40 0 L -30 0 z M 30 0 L 40 0 z" transform="translate(320, 30.5)"/><text x="0" y="0" transform="translate(320, 30.5)">9:00 am</text></g><g class="reticle"><path d="M -40 0 L -30 0 z M 30 0 L 40 0 z" transform="translate(320, 60.5)"/><text x="0" y="0" transform="translate(320, 60.5)">10:00 am</text></g><g class="reticle"><path d="M -40 0 L -30 0 z M 30 0 L 40 0 z" transform="translate(320, 90.5)"/><text x="0" y="0" transform="translate(320, 90.5)">11:00 am</text></g><g class="reticle"><path d="M -40 0 L -30 0 z M 30 0 L 40 0 z" transform="translate(320, 120.5)"/><text x="0" y="0" transform="translate(320, 120.5)">12:00 pm</text></g><g class="reticle"><path d="M -40 0 L -30 0 z M 30 0 L 40 0 z" transform="translate(320, 150.5)"/><text x="0" y="0" transform="translate(320, 150.5)">1:00 pm</text></g><g class="reticle"><path d="M -40 0 L -30 0 z M 30 0 L 40 0 z" transform="translate(320, 180.5)"/><text x="0" y="0" transform="translate(320, 180.5)">2:00 pm</text></g><g class="reticle"><path d="M -40 0 L -30 0 z M 30 0 L 40 0 z" transform="translate(320, 210.5)"/><text x="0" y="0" transform="translate(320, 210.5)">3:00 pm</text></g><g class="reticle"><path d="M -40 0 L -30 0 z M 30 0 L 40 0 z" transform="translate(320, 240.5)"/><text x="0" y="0" transform="translate(320, 240.5)">4:00 pm</text></g><g class="reticle"><path d="M -40 0 L -30 0 z M 30 0 L 40 0 z" transform="translate(320, 270.5)"/><text x="0" y="0" transform="translate(320, 270.5)">5:00 pm</text></g><g class="reticle"><path d="M -40 0 L -30 0 z M 30 0 L 40 0 z" transform="translate(320, 300.5)"/><text x="0" y="0" transform="translate(320, 300.5)">6:00 pm</text></g><g class="reticle"><path d="M -40 0 L -30 0 z M 30 0 L 40 0 z" transform="translate(320, 330.5)"/><text x="0" y="0" transform="translate(320, 330.5)">7:00 pm</text></g><g class="reticle"><path d="M -40 0 L -30 0 z M 30 0 L 40 0 z" transform="translate(320, 360.5)"/><text x="0" y="0" transform="translate(320, 360.5)">8:00 pm</text></g><g class="reticle"><path d="M -40 0 L -30 0 z M 30 0 L 40 0 z" transform="translate(320, 390.5)"/><text x="0" y="0" transform="translate(320, 390.5)">9:00 pm</text></g><a class="tutorials" target="_top" xlink:href="/2016/schedule/tutorials/"><rect width="27" height="100" x="1" y="30"/><rect width="27" height="100" x="31" y="30"/><rect width="27" height="100" x="61" y="30"/><rect width="27" height="100" x="91" y="30"/><rect width="27" height="100" x="121" y="30"/><rect width="27" height="100" x="151" y="30"/><rect width="27" height="100" x="181" y="30"/><rect width="27" height="100" x="211" y="30"/><rect width="27" height="100" x="241" y="30"/><text x="135" y="81">Morning Tutorials ($)</text></a><a class="tutorials" target="_top" xlink:href="/2016/schedule/tutorials/"><rect width="27" height="100" x="1" y="160"/><rect width="27" height="100" x="31" y="160"/><rect width="27" height="100" x="61" y="160"/><rect width="27" height="100" x="91" y="160"/><rect width="27" height="100" x="121" y="160"/><rect width="27" height="100" x="151" y="160"/><rect width="27" height="100" x="181" y="160"/><rect width="27" height="100" x="211" y="160"/><rect width="27" height="100" x="241" y="160"/><text x="135" y="211">Afternoon Tutorials ($)</text></a><text x="135" y="145">Lunch</text><g transform="translate(370, 0)"><a class="workshops" target="_top" xlink:href="/2016/schedule/sponsor-tutorials/"><rect width="52" height="45" x="1" y="30"/><rect width="52" height="45" x="1" y="85"/><rect width="52" height="45" x="1" y="160"/><rect width="52" height="45" x="1" y="215"/><rect width="52" height="45" x="56" y="30"/><rect width="52" height="45" x="56" y="85"/><rect width="52" height="45" x="56" y="160"/><rect width="52" height="45" x="56" y="215"/><text x="55" y="45">Sponsor</text><text x="55" y="65">Workshops</text></a><text x="55" y="145">Lunch</text></g><g class="reticle"><path d="M -40 0 L -30 0 z M 30 0 L 40 0 z" transform="translate(530, 30.5)"/><text x="0" y="0" transform="translate(530, 30.5)">9:00 am</text></g><g class="reticle"><path d="M -40 0 L -30 0 z M 30 0 L 40 0 z" transform="translate(530, 60.5)"/><text x="0" y="0" transform="translate(530, 60.5)">10:00 am</text></g><g class="reticle"><path d="M -40 0 L -30 0 z M 30 0 L 40 0 z" transform="translate(530, 90.5)"/><text x="0" y="0" transform="translate(530, 90.5)">11:00 am</text></g><g class="reticle"><path d="M -40 0 L -30 0 z M 30 0 L 40 0 z" transform="translate(530, 120.5)"/><text x="0" y="0" transform="translate(530, 120.5)">12:00 pm</text></g><g class="reticle"><path d="M -40 0 L -30 0 z M 30 0 L 40 0 z" transform="translate(530, 150.5)"/><text x="0" y="0" transform="translate(530, 150.5)">1:00 pm</text></g><g class="reticle"><path d="M -40 0 L -30 0 z M 30 0 L 40 0 z" transform="translate(530, 180.5)"/><text x="0" y="0" transform="translate(530, 180.5)">2:00 pm</text></g><g class="reticle"><path d="M -40 0 L -30 0 z M 30 0 L 40 0 z" transform="translate(530, 210.5)"/><text x="0" y="0" transform="translate(530, 210.5)">3:00 pm</text></g><g class="reticle"><path d="M -40 0 L -30 0 z M 30 0 L 40 0 z" transform="translate(530, 240.5)"/><text x="0" y="0" transform="translate(530, 240.5)">4:00 pm</text></g><g class="reticle"><path d="M -40 0 L -30 0 z M 30 0 L 40 0 z" transform="translate(530, 270.5)"/><text x="0" y="0" transform="translate(530, 270.5)">5:00 pm</text></g><g transform="translate(580, 0)"><a class="summit" target="_top" xlink:href="/2016/events/edusummit/"><rect width="97" height="100" x="1" y="30"/><rect width="97" height="100" x="1" y="160"/><text x="50" y="45">Education</text><text x="50" y="65">Summit</text></a><text x="50" y="145">Lunch</text></g><a class="event" target="_top" xlink:href="/2016/events/reception/"><rect width="267" height="90" x="1" y="300"/><text x="133" y="345">Opening Reception</text></a></svg>