<svg xmlns="http://www.w3.org/2000/svg" xmlns:xlink="http://www.w3.org/1999/xlink" width="1000" height="412" viewBox="0 0 1000 412"><style type="text/css">path{stroke-width:1px;stroke:#000}text{fill:#000;stroke:none;text-anchor:middle;dominant-baseline:middle;font-family:Helvetica;font-size:18px;font-weight:700}text.break{font-size:14px;font-style:italic;font-weight:400}a:hover[target] text{text-decoration:underline}.reticle text{font-size:13px}.open-spaces rect{fill:#90e4d3}.open-space rect{fill:#fff;stroke-width:0}.talks rect{fill:#eedda0}.expo rect{fill:#cede9f}.plenary rect{fill:#fbe452}.event rect{fill:#e0e0e0}</style><g class="reticle"><path d="M -40 0 L -30 0 z M 30 0 L 40 0 z" transform="translate(300, 60.5)"/><text x="0" y="0" transform="translate(300, 60.5)">9:00 am</text></g><g class="reticle"><path d="M -40 0 L -30 0 z M 30 0 L 40 0 z" transform="translate(300, 90.5)"/><text x="0" y="0" transform="translate(300, 90.5)">10:00 am</text></g><g class="reticle"><path d="M -40 0 L -30 0 z M 30 0 L 40 0 z" transform="translate(300, 120.5)"/><text x="0" y="0" transform="translate(300, 120.5)">11:00 am</text></g><g class="reticle"><path d="M -40 0 L -30 0 z M 30 0 L 40 0 z" transform="translate(300, 150.5)"/><text x="0" y="0" transform="translate(300, 150.5)">12:00 pm</text></g><g class="reticle"><path d="M -40 0 L -30 0 z M 30 0 L 40 0 z" transform="translate(300, 180.5)"/><text x="0" y="0" transform="translate(300, 180.5)">1:00 pm</text></g><g class="reticle"><path d="M -40 0 L -30 0 z M 30 0 L 40 0 z" transform="translate(300, 210.5)"/><text x="0" y="0" transform="translate(300, 210.5)">2:00 pm</text></g><g class="reticle"><path d="M -40 0 L -30 0 z M 30 0 L 40 0 z" transform="translate(300, 240.5)"/><text x="0" y="0" transform="translate(300, 240.5)">3:00 pm</text></g><g class="reticle"><path d="M -40 0 L -30 0 z M 30 0 L 40 0 z" transform="translate(300, 270.5)"/><text x="0" y="0" transform="translate(300, 270.5)">4:00 pm</text></g><g class="reticle"><path d="M -40 0 L -30 0 z M 30 0 L 40 0 z" transform="translate(300, 300.5)"/><text x="0" y="0" transform="translate(300, 300.5)">5:00 pm</text></g><g class="reticle"><path d="M -40 0 L -30 0 z M 30 0 L 40 0 z" transform="translate(300, 330.5)"/><text x="0" y="0" transform="translate(300, 330.5)">6:00 pm</text></g><g class="reticle"><path d="M -40 0 L -30 0 z M 30 0 L 40 0 z" transform="translate(300, 360.5)"/><text x="0" y="0" transform="translate(300, 360.5)">7:00 pm</text></g><g class="reticle"><path d="M -40 0 L -30 0 z M 30 0 L 40 0 z" transform="translate(300, 390.5)"/><text x="0" y="0" transform="translate(300, 390.5)">8:00 pm</text></g><g class="reticle"><path d="M -40 0 L -30 0 z M 30 0 L 40 0 z" transform="translate(520, 60.5)"/><text x="0" y="0" transform="translate(520, 60.5)">9:00 am</text></g><g class="reticle"><path d="M -40 0 L -30 0 z M 30 0 L 40 0 z" transform="translate(520, 90.5)"/><text x="0" y="0" transform="translate(520, 90.5)">10:00 am</text></g><g class="reticle"><path d="M -40 0 L -30 0 z M 30 0 L 40 0 z" transform="translate(520, 120.5)"/><text x="0" y="0" transform="translate(520, 120.5)">11:00 am</text></g><g class="reticle"><path d="M -40 0 L -30 0 z M 30 0 L 40 0 z" transform="translate(520, 150.5)"/><text x="0" y="0" transform="translate(520, 150.5)">12:00 pm</text></g><g class="reticle"><path d="M -40 0 L -30 0 z M 30 0 L 40 0 z" transform="translate(520, 180.5)"/><text x="0" y="0" transform="translate(520, 180.5)">1:00 pm</text></g><g class="reticle"><path d="M -40 0 L -30 0 z M 30 0 L 40 0 z" transform="translate(520, 210.5)"/><text x="0" y="0" transform="translate(520, 210.5)">2:00 pm</text></g><g class="reticle"><path d="M -40 0 L -30 0 z M 30 0 L 40 0 z" transform="translate(520, 240.5)"/><text x="0" y="0" transform="translate(520, 240.5)">3:00 pm</text></g><g class="reticle"><path d="M -40 0 L -30 0 z M 30 0 L 40 0 z" transform="translate(520, 270.5)"/><text x="0" y="0" transform="translate(520, 270.5)">4:00 pm</text></g><g class="reticle"><path d="M -40 0 L -30 0 z M 30 0 L 40 0 z" transform="translate(520, 300.5)"/><text x="0" y="0" transform="translate(520, 300.5)">5:00 pm</text></g><g class="reticle"><path d="M -40 0 L -30 0 z M 30 0 L 40 0 z" transform="translate(520, 330.5)"/><text x="0" y="0" transform="translate(520, 330.5)">6:00 pm</text></g><g class="reticle"><path d="M -40 0 L -30 0 z M 30 0 L 40 0 z" transform="translate(520, 360.5)"/><text x="0" y="0" transform="translate(520, 360.5)">7:00 pm</text></g><g class="reticle"><path d="M -40 0 L -30 0 z M 30 0 L 40 0 z" transform="translate(520, 390.5)"/><text x="0" y="0" transform="translate(520, 390.5)">8:00 pm</text></g><a class="plenary"><rect width="248" height="30" x="1" y="60"/><text x="124" y="75">Keynote</text></a><a class="event" target="_top" xlink:href="/2016/sponsors/charityauction/"><rect width="248" height="60" x="1" y="345"/><text x="133" y="383">PyLadies Auction ($)</text></a><a class="open-spaces" target="_top" transform="translate(570, 0)" xlink:href="/2016/events/open-spaces/"><rect width="120" height="330" y="60"/><text x="60" y="225">Open Spaces</text><g class="open-space"><rect width="26" height="26" x="2" y="62" transform="rotate(-3.17467172615 15.0 60)"/><circle cx="15" cy="66" r="1.5"/><rect width="26" height="26" x="32" y="62" transform="rotate(-2.76022183358 45.0 60)"/><circle cx="45" cy="66" r="1.5"/><rect width="26" height="26" x="62" y="62" transform="rotate(-0.787271884119 75.0 60)"/><circle cx="75" cy="66" r="1.5"/><rect width="26" height="26" x="62" y="92" transform="rotate(0.293440065399 75.0 90)"/><circle cx="75" cy="96" r="1.5"/><rect width="26" height="26" x="92" y="92" transform="rotate(-2.61868376572 105.0 90)"/><circle cx="105" cy="96" r="1.5"/><rect width="26" height="26" x="2" y="122" transform="rotate(-2.28479653937 15.0 120)"/><circle cx="15" cy="126" r="1.5"/><rect width="26" height="26" x="32" y="152" transform="rotate(-1.5212003416 45.0 150)"/><circle cx="45" cy="156" r="1.5"/><rect width="26" height="26" x="62" y="182" transform="rotate(0.846815069759 75.0 180)"/><circle cx="75" cy="186" r="1.5"/><rect width="26" height="26" x="32" y="242" transform="rotate(-0.211296899319 45.0 240)"/><circle cx="45" cy="246" r="1.5"/><rect width="26" height="26" x="62" y="242" transform="rotate(3.4767069112 75.0 240)"/><circle cx="75" cy="246" r="1.5"/><rect width="26" height="26" x="32" y="272" transform="rotate(3.27096231532 45.0 270)"/><circle cx="45" cy="276" r="1.5"/><rect width="26" height="26" x="62" y="302" transform="rotate(0.79129977752 75.0 300)"/><circle cx="75" cy="306" r="1.5"/><rect width="26" height="26" x="92" y="302" transform="rotate(-2.70943515103 105.0 300)"/><circle cx="105" cy="306" r="1.5"/><rect width="26" height="26" x="2" y="332" transform="rotate(2.50073854908 15.0 330)"/><circle cx="15" cy="336" r="1.5"/><rect width="26" height="26" x="32" y="332" transform="rotate(-3.62942400797 45.0 330)"/><circle cx="45" cy="336" r="1.5"/><rect width="26" height="26" x="92" y="332" transform="rotate(0.276974359035 105.0 330)"/><circle cx="105" cy="336" r="1.5"/><rect width="26" height="26" x="32" y="362" transform="rotate(3.97823099338 45.0 360)"/><circle cx="45" cy="366" r="1.5"/><rect width="26" height="26" x="62" y="362" transform="rotate(-0.697642748741 75.0 360)"/><circle cx="75" cy="366" r="1.5"/><rect width="26" height="26" x="92" y="362" transform="rotate(1.06131985433 105.0 360)"/><circle cx="105" cy="366" r="1.5"/></g></a><a class="plenary"><rect width="248" height="30" x="1" y="320"/><text x="124" y="335">Lightning Talks</text></a><a class="talks" target="_top" xlink:href="/2016/schedule/talks/"><rect width="48" height="15" x="1" y="116"/><rect width="48" height="17" x="1" y="133"/><rect width="48" height="22" x="1" y="152"/><rect width="48" height="15" x="1" y="206"/><rect width="48" height="17" x="1" y="223"/><rect width="48" height="22" x="1" y="242"/><rect width="48" height="15" x="1" y="281"/><rect width="48" height="15" x="1" y="298"/><rect width="48" height="15" x="51" y="116"/><rect width="48" height="17" x="51" y="133"/><rect width="48" height="15" x="51" y="152"/><rect width="48" height="22" x="51" y="199"/><rect width="48" height="17" x="51" y="223"/><rect width="48" height="15" x="51" y="242"/><rect width="48" height="22" x="51" y="274"/><rect width="48" height="15" x="51" y="298"/><rect width="48" height="15" x="101" y="116"/><rect width="48" height="17" x="101" y="133"/><rect width="48" height="22" x="101" y="152"/><rect width="48" height="15" x="101" y="206"/><rect width="48" height="17" x="101" y="223"/><rect width="48" height="22" x="101" y="242"/><rect width="48" height="15" x="101" y="281"/><rect width="48" height="15" x="101" y="298"/><rect width="48" height="15" x="151" y="116"/><rect width="48" height="17" x="151" y="133"/><rect width="48" height="15" x="151" y="152"/><rect width="48" height="22" x="151" y="199"/><rect width="48" height="17" x="151" y="223"/><rect width="48" height="15" x="151" y="242"/><rect width="48" height="22" x="151" y="274"/><rect width="48" height="15" x="151" y="298"/><rect width="48" height="15" x="201" y="116"/><rect width="48" height="17" x="201" y="133"/><rect width="48" height="22" x="201" y="152"/><rect width="48" height="15" x="201" y="206"/><rect width="48" height="17" x="201" y="223"/><rect width="48" height="22" x="201" y="242"/><rect width="48" height="15" x="201" y="281"/><rect width="48" height="15" x="201" y="298"/><text x="125" y="196">Talks</text></a><a class="expo" target="_top" transform="translate(350, 0)" xlink:href="/2016/sponsors/exhibitfloor/"><rect width="120" height="270" x="1" y="30"/><text x="60" y="147">Expo Hall</text><text x="60" y="45" class="break">— Breakfast —</text><text x="60" y="105" class="break">— Break —</text><text x="60" y="190" class="break">— Lunch —</text><text x="60" y="275" class="break">— Break —</text></a></svg>